<svg fill="none" height="320" viewBox="0 0 320 320" width="320" xmlns="http://www.w3.org/2000/svg"><path clip-rule="evenodd" d="m319.996 159.628c0 3.732-.128 7.433-.38 11.101v68.146.379 1.121.379 77.746 1.5h-1.5-77.65-.379-1.121-.379-77.649-.38-1.12-.38-77.6497-.3796-1.1204-.3796-77.64923-1.5v-1.5-77.746-.379-1.121-.379-68.166c-.251599-3.661-.37947-7.356-.37947-11.081 0-3.724.127871-7.419.37947-11.081v-67.0434-.3786h-.000488v-1.5-77.74641-1.5h1.499998 77.64922 1.5v.000468h.3802 67.4766c3.672-.251326 7.378-.379058 11.113-.379058 3.736 0 7.442.127732 11.113.379058h67.476.38 1.12.38 77.649 1.5v1.500002 77.74644 1.5.3781 67.0244c.252 3.668.38 7.369.38 11.1zm-1.88-78.1244v53.5724c-2.971-19.201-9.372-37.2729-18.559-53.5724zm0 67.0774c-1.68-24.276-8.851-47.044-20.283-67.0774h-57.367v77.7464h77.65zm0-68.9555h-19.634c-13.956-23.9941-33.997-44.0275-58.015-57.9981v-19.74834h77.649zm-21.372 0c-13.657-23.1845-33.069-42.5889-56.277-56.2599v56.2599zm-58.157-77.74644v18.67194c-16.407-9.2479-34.613-15.68956-53.963-18.67194zm0 20.39654c-20.152-11.5009-43.077-18.71498-67.528-20.39654h-10.122v77.74644h77.65zm-157.1786-20.39654h53.9646c-19.351 2.98246-37.5577 9.42444-53.9646 18.67264zm67.5286 0c-24.451 1.6816-47.377 8.89594-67.5286 20.39734v57.3491h77.6496v-77.74644zm-69.4088-.00047v19.74981c-24.0176 13.9704-44.0579 34.0033-58.0135 57.9966h-19.63572v-77.74641zm0 21.48801c-23.2074 13.6709-42.6184 33.0747-56.2751 56.2584h56.2751zm-77.64873 58.137h18.55953c-9.1878 16.3019-15.58912 34.3764-18.55953 53.5814zm0 79.6254v9.528c1.70816 24.737 9.11913 47.909 20.93073 68.218h56.7185v-77.746zm0 77.746v-54.703c3.03872 19.646 9.66793 38.11 19.19783 54.703zm0 1.879h20.29383c13.9243 23.496 33.7129 43.122 57.3554 56.875v20.871h-77.64923zm79.52883 77.746v-19.795c18.9127 10.661 40.2177 17.593 62.9107 19.795zm0-21.52c22.9097 13.076 49.4037 20.61 77.6497 20.774v-77h-77.6497zm157.1787 21.52h-62.909c22.692-2.202 43.996-9.134 62.909-19.794zm-77.649-.746c28.245-.163 54.74-7.698 77.649-20.773v-56.227h-77.649zm79.528.746v-20.871c23.643-13.752 43.433-33.379 57.357-56.875h20.293v77.746zm0-22.609c22.833-13.45 41.991-32.449 55.61-55.137h-55.61zm0-57.016h56.72c11.809-20.303 19.219-43.469 20.93-68.199v-9.547h-77.65zm77.65-54.695c-3.04 19.644-9.668 38.104-19.197 54.695h19.197zm-294.1958 56.574c13.6185 22.688 32.7761 41.687 55.6085 55.136v-55.136zm-1.7564-159.2504c-11.4355 20.0384-18.60754 42.8134-20.28433 67.0964v10.65h77.64923v-77.7464zm59.2445 0h77.6497v5.1192h-34.031-5.64-20.3064v72.6272h-17.6723zm17.6723 79.6254h-17.6723v77.746h77.6497v-77.746h-34.031v72.059h-25.9464zm25.9464-1.879h34.031v-46.696h-34.031zm35.911-72.6272h37.415 5.641 20.306v72.6272h14.287v-77.7464h-77.649zm63.362 74.5062h14.287v77.746h-77.649v-77.746h37.415v72.059h25.947zm-25.947-1.879v-46.696h-37.415v46.696z" fill="#fff" fill-rule="evenodd" opacity=".2"/></svg>