<svg fill="none" height="38" viewBox="0 0 38 38" width="38" xmlns="http://www.w3.org/2000/svg"><path d="m0 12.6667c0-4.43378 0-6.65066.862865-8.34412.758995-1.48962 1.970095-2.70072 3.459715-3.459715 1.69346-.862865 3.91034-.862865 8.34412-.862865h12.6666c4.4338 0 6.6507 0 8.3441.862865 1.4896.758995 2.7007 1.970095 3.4597 3.459715.8629 1.69346.8629 3.91034.8629 8.34412v12.6666c0 4.4338 0 6.6507-.8629 8.3441-.759 1.4896-1.9701 2.7007-3.4597 3.4597-1.6934.8629-3.9103.8629-8.3441.8629h-12.6666c-4.43378 0-6.65066 0-8.34412-.8629-1.48962-.759-2.70072-1.9701-3.459715-3.4597-.862865-1.6934-.862865-3.9103-.862865-8.3441z" fill="#3ddc84"/><circle cx="19" cy="19" fill="#fff" r="11"/><path clip-rule="evenodd" d="m15.1538 19c0 2.1242 1.722 3.8462 3.8462 3.8462s3.8462-1.722 3.8462-3.8462h2.1538c0 3.3137-2.6863 6-6 6s-6-2.6863-6-6z" fill="#3ddc84" fill-rule="evenodd"/></svg>